<svg width="86" height="90" viewBox="0 0 86 90" fill="none" xmlns="http://www.w3.org/2000/svg">
<g clip-path="url(#clip0_1594_39535)">
<path d="M42.9969 35.51C41.304 35.51 39.6803 36.1822 38.4827 37.3788C37.2852 38.5754 36.6117 40.1986 36.6104 41.8915C36.6104 45.4284 42.9969 54.4221 42.9969 54.4221C42.9969 54.4221 49.3784 45.4183 49.3784 41.8915C49.3784 40.199 48.7061 38.5759 47.5093 37.3791C46.3126 36.1823 44.6894 35.51 42.9969 35.51ZM42.9969 44.9686C42.3846 44.9686 41.7859 44.7871 41.2767 44.447C40.7675 44.1069 40.3705 43.6234 40.1359 43.0578C39.9013 42.4921 39.8397 41.8696 39.9588 41.2689C40.0779 40.6683 40.3724 40.1164 40.805 39.683C41.2377 39.2496 41.7891 38.9542 42.3896 38.8342C42.9901 38.7141 43.6127 38.7747 44.1787 39.0084C44.7447 39.242 45.2288 39.6382 45.5698 40.1469C45.9107 40.6556 46.0932 41.2539 46.0942 41.8663C46.0949 42.2734 46.0152 42.6767 45.8599 43.0531C45.7045 43.4295 45.4765 43.7715 45.1888 44.0596C44.9011 44.3478 44.5595 44.5764 44.1834 44.7324C43.8073 44.8883 43.4041 44.9686 42.9969 44.9686Z" fill="#0068E0"/>
<path d="M42.9971 30.2152C42.7291 30.2152 42.4721 30.1087 42.2825 29.9192C42.093 29.7297 41.9866 29.4727 41.9866 29.2047V1.01078C41.9866 0.742768 42.093 0.485734 42.2825 0.296223C42.4721 0.106711 42.7291 0.000244141 42.9971 0.000244141C43.2651 0.000244141 43.5222 0.106711 43.7117 0.296223C43.9012 0.485734 44.0076 0.742768 44.0076 1.01078V29.2198C44.0037 29.4852 43.8954 29.7384 43.7064 29.9246C43.5173 30.1108 43.2625 30.2152 42.9971 30.2152Z" fill="#0068E0"/>
<path d="M42.9971 89.9377C42.7291 89.9377 42.4721 89.8313 42.2825 89.6418C42.093 89.4523 41.9866 89.1952 41.9866 88.9272V60.7131C41.9866 60.4451 42.093 60.1881 42.2825 59.9986C42.4721 59.809 42.7291 59.7026 42.9971 59.7026C43.2651 59.7026 43.5222 59.809 43.7117 59.9986C43.9012 60.1881 44.0076 60.4451 44.0076 60.7131V88.9272C44.0076 89.1952 43.9012 89.4523 43.7117 89.6418C43.5222 89.8313 43.2651 89.9377 42.9971 89.9377Z" fill="#0068E0"/>
<path d="M84.9945 45.9793H58.7459C58.4779 45.9793 58.2208 45.8729 58.0313 45.6833C57.8418 45.4938 57.7354 45.2368 57.7354 44.9688C57.7354 44.7008 57.8418 44.4437 58.0313 44.2542C58.2208 44.0647 58.4779 43.9583 58.7459 43.9583H85.0198C85.2878 43.9583 85.5448 44.0647 85.7343 44.2542C85.9238 44.4437 86.0303 44.7008 86.0303 44.9688C86.0303 45.2368 85.9238 45.4938 85.7343 45.6833C85.5448 45.8729 85.2878 45.9793 85.0198 45.9793H84.9945Z" fill="#0068E0"/>
<path d="M27.2474 45.9793H0.998815C0.730805 45.9793 0.473771 45.8729 0.28426 45.6833C0.0947478 45.4938 -0.0117188 45.2368 -0.0117187 44.9688C-0.0117188 44.7008 0.0947478 44.4437 0.28426 44.2542C0.473771 44.0647 0.730805 43.9583 0.998815 43.9583H27.2727C27.5407 43.9583 27.7977 44.0647 27.9872 44.2542C28.1768 44.4437 28.2832 44.7008 28.2832 44.9688C28.2832 45.2368 28.1768 45.4938 27.9872 45.6833C27.7977 45.8729 27.5407 45.9793 27.2727 45.9793H27.2474Z" fill="#0068E0"/>
<path d="M74.945 77.9174C74.6817 77.915 74.4297 77.8098 74.2427 77.6244L53.4257 56.8124C53.3099 56.7256 53.2141 56.6148 53.1448 56.4877C53.0755 56.3606 53.0343 56.2201 53.024 56.0756C53.0138 55.9312 53.0347 55.7863 53.0853 55.6506C53.1359 55.515 53.2151 55.3918 53.3175 55.2894C53.4198 55.1871 53.543 55.1079 53.6787 55.0573C53.8143 55.0066 53.9592 54.9857 54.1037 54.996C54.2481 55.0063 54.3886 55.0475 54.5157 55.1168C54.6428 55.1861 54.7536 55.2819 54.8404 55.3977L75.6524 76.2096C75.7876 76.3513 75.8786 76.5292 75.9146 76.7217C75.9505 76.9142 75.9298 77.113 75.8548 77.2939C75.7799 77.4748 75.654 77.63 75.4925 77.7407C75.331 77.8514 75.1408 77.9128 74.945 77.9174Z" fill="#0068E0"/>
<path d="M31.8812 34.8283C31.6161 34.8272 31.362 34.722 31.1738 34.5353L10.3366 13.7233C10.2208 13.6365 10.125 13.5257 10.0557 13.3986C9.98635 13.2715 9.94518 13.1309 9.93492 12.9865C9.92465 12.8421 9.94554 12.6972 9.99617 12.5615C10.0468 12.4259 10.126 12.3027 10.2284 12.2003C10.3307 12.098 10.4539 12.0188 10.5895 11.9682C10.7252 11.9175 10.8701 11.8966 11.0145 11.9069C11.159 11.9172 11.2995 11.9583 11.4266 12.0276C11.5537 12.0969 11.6645 12.1927 11.7513 12.3086L32.5683 33.1256C32.7009 33.2662 32.7904 33.4418 32.8262 33.6318C32.862 33.8217 32.8426 34.0179 32.7703 34.1971C32.698 34.3763 32.5758 34.531 32.4182 34.6429C32.2606 34.7548 32.0742 34.8191 31.8812 34.8283Z" fill="#0068E0"/>
<path d="M11.0444 77.9173C10.8486 77.9126 10.6584 77.8513 10.4969 77.7406C10.3353 77.6299 10.2095 77.4746 10.1345 77.2937C10.0596 77.1128 10.0388 76.914 10.0748 76.7215C10.1107 76.529 10.2018 76.3511 10.337 76.2095L31.154 55.3975C31.3429 55.2124 31.5968 55.1086 31.8614 55.1086C32.1259 55.1086 32.3798 55.2124 32.5687 55.3975C32.7524 55.5862 32.8551 55.8391 32.8551 56.1024C32.8551 56.3656 32.7524 56.6185 32.5687 56.8072L11.7517 77.6242C11.5635 77.8109 11.3095 77.9161 11.0444 77.9173Z" fill="#0068E0"/>
<path d="M54.1127 34.828C53.917 34.8234 53.7268 34.762 53.5652 34.6513C53.4037 34.5406 53.2778 34.3853 53.2029 34.2044C53.128 34.0235 53.1072 33.8247 53.1431 33.6323C53.1791 33.4398 53.2702 33.2619 53.4053 33.1202L74.2223 12.3082C74.3086 12.1907 74.4193 12.0932 74.5468 12.0225C74.6743 11.9518 74.8156 11.9096 74.961 11.8986C75.1064 11.8877 75.2525 11.9083 75.3891 11.9591C75.5258 12.0099 75.6498 12.0897 75.7527 12.193C75.8556 12.2963 75.935 12.4206 75.9853 12.5575C76.0357 12.6943 76.0558 12.8404 76.0443 12.9858C76.0328 13.1311 75.9901 13.2723 75.9189 13.3995C75.8477 13.5268 75.7499 13.6371 75.632 13.723L54.8403 34.5349C54.7447 34.6298 54.6311 34.7046 54.5061 34.7549C54.3812 34.8053 54.2474 34.8301 54.1127 34.828Z" fill="#0068E0"/>
<path d="M49.0148 31.3823C48.8833 31.3801 48.7532 31.3544 48.6308 31.3066C48.3872 31.2027 48.194 31.0075 48.0929 30.7627C47.9918 30.518 47.9908 30.2434 48.0901 29.9979L53.7137 16.3961C53.7503 16.2555 53.8168 16.1244 53.9087 16.0118C54.0005 15.8993 54.1156 15.8078 54.246 15.7437C54.3764 15.6796 54.519 15.6444 54.6643 15.6404C54.8095 15.6365 54.9539 15.6639 55.0876 15.7209C55.2213 15.7778 55.3411 15.8629 55.4389 15.9703C55.5368 16.0778 55.6103 16.205 55.6544 16.3435C55.6986 16.4819 55.7124 16.6282 55.6949 16.7725C55.6773 16.9167 55.6289 17.0555 55.5529 17.1793L49.9293 30.7609C49.8537 30.9421 49.727 31.0974 49.5646 31.2078C49.4021 31.3181 49.2111 31.3788 49.0148 31.3823Z" fill="#0068E0"/>
<path d="M70.0645 58.0547C69.9253 58.0542 69.7877 58.025 69.6603 57.9688L56.968 52.2997C56.7283 52.1894 56.5412 51.9897 56.4468 51.7432C56.3524 51.4968 56.3581 51.2232 56.4627 50.9809C56.573 50.7412 56.7728 50.5541 57.0192 50.4597C57.2656 50.3653 57.5392 50.371 57.7815 50.4757L70.4738 56.1448C70.6723 56.2458 70.8319 56.4097 70.9277 56.6109C71.0235 56.812 71.0501 57.0392 71.0035 57.2571C70.9568 57.4749 70.8394 57.6713 70.6696 57.8155C70.4998 57.9598 70.2871 58.0438 70.0645 58.0547Z" fill="#0068E0"/>
<path d="M28.4402 39.9159C28.3101 39.9162 28.1813 39.8904 28.0613 39.8401L13.9138 33.9942C13.7009 33.8701 13.5407 33.6726 13.4633 33.4386C13.3859 33.2047 13.3966 32.9506 13.4934 32.724C13.5903 32.4974 13.7665 32.314 13.9891 32.2083C14.2117 32.1026 14.4652 32.0819 14.702 32.15L28.8495 37.9959C29.0867 38.1062 29.272 38.3042 29.3662 38.5483C29.4604 38.7924 29.4563 39.0635 29.3548 39.3046C29.2777 39.4839 29.1503 39.6371 28.988 39.7456C28.8257 39.8541 28.6354 39.9133 28.4402 39.9159Z" fill="#0068E0"/>
<path d="M36.9589 31.3928C36.7614 31.3916 36.5686 31.3326 36.4042 31.2231C36.2399 31.1135 36.1113 30.9582 36.0343 30.7764L30.3904 17.1796C30.3147 17.0552 30.2668 16.9159 30.2499 16.7712C30.2331 16.6266 30.2477 16.48 30.2928 16.3415C30.3379 16.203 30.4124 16.0759 30.5112 15.9689C30.61 15.8618 30.7308 15.7774 30.8652 15.7215C30.9997 15.6655 31.1446 15.6392 31.2902 15.6445C31.4357 15.6497 31.5784 15.6864 31.7085 15.7519C31.8386 15.8175 31.9529 15.9104 32.0437 16.0242C32.1345 16.1381 32.1997 16.2703 32.2347 16.4116L37.8835 30.0084C37.9442 30.1606 37.9669 30.3252 37.9497 30.4881C37.9326 30.6511 37.8761 30.8074 37.7851 30.9436C37.6941 31.0798 37.5714 31.1919 37.4274 31.2702C37.2835 31.3484 37.1227 31.3905 36.9589 31.3928Z" fill="#0068E0"/>
<path d="M14.8538 57.601C14.6301 57.5881 14.417 57.5013 14.2481 57.354C14.0791 57.2068 13.9639 57.0077 13.9205 56.7878C13.8771 56.568 13.908 56.3399 14.0084 56.1396C14.1087 55.9392 14.2728 55.7779 14.4749 55.681L28.0666 50.0372C28.189 49.9857 28.3203 49.9589 28.4531 49.9583C28.5859 49.9576 28.7175 49.9831 28.8404 50.0333C28.9634 50.0835 29.0752 50.1574 29.1695 50.2509C29.2639 50.3443 29.3389 50.4554 29.3904 50.5778C29.4418 50.7002 29.4686 50.8316 29.4693 50.9643C29.4699 51.0971 29.4444 51.2287 29.3942 51.3517C29.344 51.4746 29.2701 51.5864 29.1767 51.6808C29.0832 51.7751 28.9721 51.8502 28.8497 51.9016L15.258 57.5404C15.1288 57.5879 14.9913 57.6085 14.8538 57.601Z" fill="#0068E0"/>
<path d="M57.5439 39.9167C57.3198 39.9048 57.106 39.8186 56.9363 39.6718C56.7666 39.525 56.6506 39.3258 56.6065 39.1057C56.5625 38.8857 56.593 38.6572 56.6932 38.4564C56.7934 38.2556 56.9576 38.0938 57.1599 37.9967L70.7516 32.3377C70.9971 32.2384 71.2717 32.2394 71.5164 32.3405C71.7612 32.4416 71.9564 32.6347 72.0602 32.8783C72.1595 33.1238 72.1585 33.3984 72.0574 33.6432C71.9563 33.8879 71.7632 34.0832 71.5196 34.187L57.9279 39.8257C57.8071 39.881 57.6766 39.9119 57.5439 39.9167Z" fill="#0068E0"/>
<path d="M29.3595 13.354C29.9874 13.354 30.4964 12.845 30.4964 12.2172C30.4964 11.5893 29.9874 11.0803 29.3595 11.0803C28.7316 11.0803 28.2227 11.5893 28.2227 12.2172C28.2227 12.845 28.7316 13.354 29.3595 13.354Z" fill="#0068E0"/>
<path d="M56.5079 12.5962C57.1358 12.5962 57.6448 12.0872 57.6448 11.4594C57.6448 10.8315 57.1358 10.3225 56.5079 10.3225C55.8801 10.3225 55.3711 10.8315 55.3711 11.4594C55.3711 12.0872 55.8801 12.5962 56.5079 12.5962Z" fill="#0068E0"/>
<path d="M31.1887 74.0981C31.0256 74.0955 30.8654 74.0534 30.7221 73.9754C30.5787 73.8974 30.4563 73.7859 30.3655 73.6503C30.2746 73.5148 30.2179 73.3592 30.2003 73.197C30.1826 73.0347 30.2045 72.8706 30.2641 72.7187L35.8877 59.1169C36.0135 58.912 36.2082 58.7587 36.4368 58.6844C36.6655 58.6102 36.9131 58.6199 37.1353 58.7118C37.3574 58.8037 37.5395 58.9718 37.6489 59.1858C37.7582 59.3999 37.7877 59.646 37.7319 59.8799L32.1083 73.4816C32.0316 73.6627 31.9038 73.8175 31.7405 73.927C31.5771 74.0365 31.3854 74.0959 31.1887 74.0981Z" fill="#0068E0"/>
<path d="M54.5121 74.0973C54.3146 74.0962 54.1218 74.0372 53.9575 73.9276C53.7931 73.8181 53.6645 73.6628 53.5875 73.4809L47.9436 59.8741C47.844 59.6292 47.8443 59.3551 47.9444 59.1105C48.0446 58.8658 48.2365 58.6702 48.4792 58.5654C48.7241 58.4677 48.9975 58.4695 49.241 58.5705C49.4846 58.6715 49.679 58.8637 49.7828 59.1061L55.4317 72.718C55.5295 72.9628 55.5276 73.2362 55.4266 73.4798C55.3256 73.7233 55.1334 73.9177 54.8911 74.0215C54.7708 74.071 54.6421 74.0967 54.5121 74.0973Z" fill="#0068E0"/>
<path d="M56.4679 78.8013C57.0958 78.8013 57.6048 78.2923 57.6048 77.6644C57.6048 77.0366 57.0958 76.5276 56.4679 76.5276C55.84 76.5276 55.3311 77.0366 55.3311 77.6644C55.3311 78.2923 55.84 78.8013 56.4679 78.8013Z" fill="#0068E0"/>
<path d="M29.3195 79.565C29.9473 79.565 30.4563 79.056 30.4563 78.4281C30.4563 77.8002 29.9473 77.2913 29.3195 77.2913C28.6916 77.2913 28.1826 77.8002 28.1826 78.4281C28.1826 79.056 28.6916 79.565 29.3195 79.565Z" fill="#0068E0"/>
<path d="M74.5763 59.5767C75.2042 59.5767 75.7132 59.0677 75.7132 58.4398C75.7132 57.812 75.2042 57.303 74.5763 57.303C73.9484 57.303 73.4395 57.812 73.4395 58.4398C73.4395 59.0677 73.9484 59.5767 74.5763 59.5767Z" fill="#0068E0"/>
<path d="M10.2755 59.647C10.9034 59.647 11.4124 59.138 11.4124 58.5101C11.4124 57.8823 10.9034 57.3733 10.2755 57.3733C9.64766 57.3733 9.13867 57.8823 9.13867 58.5101C9.13867 59.138 9.64766 59.647 10.2755 59.647Z" fill="#0068E0"/>
<path d="M74.5763 33.0493C75.2042 33.0493 75.7132 32.5404 75.7132 31.9125C75.7132 31.2846 75.2042 30.7756 74.5763 30.7756C73.9484 30.7756 73.4395 31.2846 73.4395 31.9125C73.4395 32.5404 73.9484 33.0493 74.5763 33.0493Z" fill="#0068E0"/>
<path d="M10.2755 33.1206C10.9034 33.1206 11.4124 32.6116 11.4124 31.9838C11.4124 31.3559 10.9034 30.8469 10.2755 30.8469C9.64766 30.8469 9.13867 31.3559 9.13867 31.9838C9.13867 32.6116 9.64766 33.1206 10.2755 33.1206Z" fill="#0068E0"/>
</g>
<defs>
<clipPath id="clip0_1594_39535">
<rect width="85.9914" height="89.9375" fill="white" transform="translate(0.00390625 0.000244141)"/>
</clipPath>
</defs>
</svg>
